<?xml version="1.0" standalone="no"?><svg data-noselect="" 
  viewBox="141.23571014404 94.55644382440266 534 400.34653698003734" 
  width="534" 
  height="400.34653698003734" 
  ref="svg_canvas" 
  preserveAspectRatio="none" 
  version="1.1" xmlns="http://www.w3.org/2000/svg" 
  style="background: #ffffff;">
    <defs></defs>
    <g id="shape_gBDF8cVS8M" class="brand_name"  ref="shape_gBDF8cVS8M" key="shape_gBDF8cVS8M" transform="translate(259.73567321778,146.34998080444) rotate(0,222.78,242.966665530672) scale(1,1)" style="cursor:move;display:inline;opacity:1;" filter="">
            <g style="display:inline"><svg xmlns="http://www.w3.org/2000/svg" version="1.1" xmlns:xlink="http://www.w3.org/1999/xlink" width="431" height="470.106" viewBox="0 0 431 470.106" preserveAspectRatio="none" data-parent="shape_gBDF8cVS8M"><rect fill="rgba(0,0,0,0)" width="163" height="67" x="67" y="201.553"></rect><g data-width="162.34" transform="translate(67.33, 0)"><path d="M37.25-44.69L47.97-44.69L28.41 0L18.89 0L0.07-44.69L10.79-44.69L23.92-11.06L37.25-44.69Z" transform="translate(0 258.553) skewX(0)" fill="rgb(25, 25, 25)" stroke="rgb(25, 25, 25)" stroke-width="0.112" data-glyph-w="57.106" data-glyph-h="67" data-glyph-ascender="57.553000000000004" data-glyph-descender="-9.447000000000001"></path><path d="M37.25-44.69L47.97-44.69L28.41 0L18.89 0L0.07-44.69L10.79-44.69L23.92-11.06L37.25-44.69Z" transform="translate(57.106 258.553) skewX(0)" fill="rgb(25, 25, 25)" stroke="rgb(25, 25, 25)" stroke-width="0.112" data-glyph-w="57.106" data-glyph-h="67" data-glyph-ascender="57.553000000000004" data-glyph-descender="-9.447000000000001"></path><path d="M14.47 0L14.47-36.72L0.27-36.72L0.27-44.69L38.79-44.69L38.79-36.72L23.99-36.72L23.99 0L14.47 0Z" transform="translate(114.212 258.553) skewX(0)" fill="rgb(25, 25, 25)" stroke="rgb(25, 25, 25)" stroke-width="0.112" data-glyph-w="48.128" data-glyph-h="67" data-glyph-ascender="57.553000000000004" data-glyph-descender="-9.447000000000001"></path></g></svg></g>
        </g><g id="shape_wCNxXoDjkj" class="icon"  ref="shape_wCNxXoDjkj" key="shape_wCNxXoDjkj" transform="translate(322.23571014404,174.55644382440266) rotate(0,86,86) scale(1,1)" style="cursor:move;display:inline;opacity:1;" filter="">
            <g style="display:inline"><rect fill="rgba(0,0,0,0)" width="192" height="164.08131095959467" x="-10" y="-10"></rect><svg version="1.1" id="图层_1" xmlns="http://www.w3.org/2000/svg" xmlns:xlink="http://www.w3.org/1999/xlink" x="0px" y="0px" width="172" height="144.08131095959467" viewBox="0 0.03505706787109375 213.3000030517578 178.67758178710938" enable-background="new 0 0 213.3 178.7" xml:space="preserve" class="style-removed" preserveAspectRatio="none" data-parent="shape_wCNxXoDjkj">
<g>
	
		<linearGradient id="SVGID_1_" gradientUnits="userSpaceOnUse" x1="330.5772" y1="141.1137" x2="184.2715" y2="-5.1921" gradientTransform="matrix(0.9859 0.1673 -0.1673 0.9859 -135.4067 -58.9044)">
		<stop offset="0" stop-color="#92FFC0"></stop>
		<stop offset="1" stop-color="#002661"></stop>
	</linearGradient>
	<path fill="url(#SVGID_1_)" d="M213.3,102.6C170.6-10.3,0,0.3,0,0.3c13.1,43.3,70.5,60.8,70.5,60.8
		C114.8,76.2,169.9,44.6,213.3,102.6z"></path>
	<g>
		
			<linearGradient id="SVGID_2_" gradientUnits="userSpaceOnUse" x1="311.6768" y1="195.5637" x2="228.1463" y2="112.0332" gradientTransform="matrix(0.9859 0.1673 -0.1673 0.9859 -135.4067 -58.9044)">
			<stop offset="0" stop-color="#92FFC0"></stop>
			<stop offset="1" stop-color="#002661"></stop>
		</linearGradient>
		<path fill="url(#SVGID_2_)" d="M81.2,102.2c-21.8-3.4-33,3.5-33,3.5c18.1,33.1,57.2,37.9,57.2,37.9c-18.9-0.4-25.5,8.6-25.5,8.6
			c16.7,12.6,33.5,20.4,49.4,24.9c-0.1-0.1,0.4,0.1,0.3,0.1c0,0,13.8,4.3,24.2-1.6C147.7,131.5,119.9,111.4,81.2,102.2z"></path>
		
			<linearGradient id="SVGID_3_" gradientUnits="userSpaceOnUse" x1="342.0582" y1="165.3474" x2="221.9849" y2="45.2742" gradientTransform="matrix(0.9859 0.1673 -0.1673 0.9859 -135.4067 -58.9044)">
			<stop offset="0" stop-color="#92FFC0"></stop>
			<stop offset="1" stop-color="#002661"></stop>
		</linearGradient>
		<path fill="url(#SVGID_3_)" d="M154.3,94.3c0,0,17.7-21.3,59,8.3c-43.4-58-98.5-26.3-142.8-41.5c-31.9-8.7-47-1.1-47-1.1
			c14,36.5,57.7,42.3,57.7,42.3c38.7,9.2,66.5,29.3,72.6,73.4c4.5-2.5,8.4-6.9,10.2-14.3c6.2-24.7-14.6-54.3-47.1-49.4
			C117.1,111.9,119.4,85.6,154.3,94.3z"></path>
	</g>
</g>
</svg></g>
        </g>
  </svg>